# xmcd
#
# Track frame offsets:
#	150
#	65334
#	94347
#	138369
#	179848
#	209026
#
# Disc length: 3196 seconds
#
# Revision: 0
# Processed by: cddbd v1.5.2PL0 Copyright (c) Steve Scherf et al.
# Submitted via: audiograbber 1.83.01
#
DISCID=5f0c7a06
DTITLE=Grateful Dead - 93-09-16 Madison Square Garden, New York NY
DYEAR=1900
DGENRE=
TTITLE0=Space
TTITLE1=Way To Go Home
TTITLE2=Days Between
TTITLE3=Throwing Stones
TTITLE4=Not Fade Away
TTITLE5=Liberty
EXTD=
EXTT0=
EXTT1=
EXTT2=
EXTT3=
EXTT4=
EXTT5=
PLAYORDER=
